<svg height="512" viewBox="0 0 128 128" width="512" xmlns="http://www.w3.org/2000/svg"><g><path d="m1.75 29.364v71.653a4.476 4.476 0 0 0 4.476 4.476h37.574v-18.328a4 4 0 0 1 4-4h32.4a4 4 0 0 1 4 4v18.328h37.572a4.476 4.476 0 0 0 4.476-4.476v-71.653z" fill="#f4d844"/><path d="m6.75 10.489h114.5a5 5 0 0 1 5 5v13.875a0 0 0 0 1 0 0h-124.5a0 0 0 0 1 0 0v-13.875a5 5 0 0 1 5-5z" fill="#607880"/><g fill="#94e0da"><path d="m118.25 21.676h-68.563a1.75 1.75 0 0 1 0-3.5h68.563a1.75 1.75 0 0 1 0 3.5z"/><path d="m14.377 21.676h-4.627a1.75 1.75 0 0 1 0-3.5h4.627a1.75 1.75 0 0 1 0 3.5z"/><path d="m27.69 21.676h-4.628a1.75 1.75 0 0 1 0-3.5h4.628a1.75 1.75 0 0 1 0 3.5z"/><path d="m41 21.676h-4.625a1.75 1.75 0 0 1 0-3.5h4.625a1.75 1.75 0 0 1 0 3.5z"/></g><g fill="#607880"><path d="m34.13 37.614h-4.356a3.754 3.754 0 0 0 -3.75 3.75v8.327a3.754 3.754 0 0 0 3.75 3.75h4.356a3.754 3.754 0 0 0 3.75-3.75v-8.327a3.754 3.754 0 0 0 -3.75-3.75zm.25 12.077a.25.25 0 0 1 -.25.25h-4.356a.25.25 0 0 1 -.25-.25v-8.327a.25.25 0 0 1 .25-.25h4.356a.25.25 0 0 1 .25.25z"/><path d="m50.154 37.614h-4.354a3.754 3.754 0 0 0 -3.75 3.75v8.327a3.754 3.754 0 0 0 3.75 3.75h4.356a3.754 3.754 0 0 0 3.75-3.75v-8.327a3.754 3.754 0 0 0 -3.752-3.75zm.25 12.077a.25.25 0 0 1 -.25.25h-4.354a.25.25 0 0 1 -.25-.25v-8.327a.25.25 0 0 1 .25-.25h4.356a.25.25 0 0 1 .25.25z"/><path d="m82.2 37.614h-4.354a3.754 3.754 0 0 0 -3.75 3.75v8.327a3.754 3.754 0 0 0 3.75 3.75h4.354a3.754 3.754 0 0 0 3.75-3.75v-8.327a3.754 3.754 0 0 0 -3.75-3.75zm.25 12.077a.25.25 0 0 1 -.25.25h-4.354a.25.25 0 0 1 -.25-.25v-8.327a.25.25 0 0 1 .25-.25h4.354a.25.25 0 0 1 .25.25z"/><path d="m114.25 37.614h-4.356a3.754 3.754 0 0 0 -3.75 3.75v8.327a3.754 3.754 0 0 0 3.75 3.75h4.356a3.755 3.755 0 0 0 3.75-3.75v-8.327a3.755 3.755 0 0 0 -3.75-3.75zm.25 12.077a.25.25 0 0 1 -.25.25h-4.356a.25.25 0 0 1 -.25-.25v-8.327a.25.25 0 0 1 .25-.25h4.356a.25.25 0 0 1 .25.25z"/><path d="m18.106 59.515h-4.356a3.754 3.754 0 0 0 -3.75 3.75v8.327a3.754 3.754 0 0 0 3.75 3.75h4.356a3.754 3.754 0 0 0 3.75-3.75v-8.327a3.754 3.754 0 0 0 -3.75-3.75zm.25 12.077a.251.251 0 0 1 -.25.25h-4.356a.251.251 0 0 1 -.25-.25v-8.327a.25.25 0 0 1 .25-.25h4.356a.25.25 0 0 1 .25.25z"/><path d="m34.13 59.515h-4.356a3.754 3.754 0 0 0 -3.75 3.75v8.327a3.754 3.754 0 0 0 3.75 3.75h4.356a3.754 3.754 0 0 0 3.75-3.75v-8.327a3.754 3.754 0 0 0 -3.75-3.75zm.25 12.077a.251.251 0 0 1 -.25.25h-4.356a.251.251 0 0 1 -.25-.25v-8.327a.25.25 0 0 1 .25-.25h4.356a.25.25 0 0 1 .25.25z"/><path d="m98.227 59.515h-4.358a3.755 3.755 0 0 0 -3.75 3.75v8.327a3.755 3.755 0 0 0 3.75 3.75h4.358a3.755 3.755 0 0 0 3.75-3.75v-8.327a3.755 3.755 0 0 0 -3.75-3.75zm.25 12.077a.251.251 0 0 1 -.25.25h-4.358a.251.251 0 0 1 -.25-.25v-8.327a.25.25 0 0 1 .25-.25h4.358a.251.251 0 0 1 .25.25z"/><path d="m18.106 81.415h-4.356a3.754 3.754 0 0 0 -3.75 3.75v8.328a3.754 3.754 0 0 0 3.75 3.75h4.356a3.754 3.754 0 0 0 3.75-3.75v-8.328a3.754 3.754 0 0 0 -3.75-3.75zm.25 12.078a.251.251 0 0 1 -.25.25h-4.356a.251.251 0 0 1 -.25-.25v-8.328a.25.25 0 0 1 .25-.25h4.356a.25.25 0 0 1 .25.25z"/><path d="m34.13 81.415h-4.356a3.754 3.754 0 0 0 -3.75 3.75v8.328a3.754 3.754 0 0 0 3.75 3.75h4.356a3.754 3.754 0 0 0 3.75-3.75v-8.328a3.754 3.754 0 0 0 -3.75-3.75zm.25 12.078a.251.251 0 0 1 -.25.25h-4.356a.251.251 0 0 1 -.25-.25v-8.328a.25.25 0 0 1 .25-.25h4.356a.25.25 0 0 1 .25.25z"/><path d="m98.227 81.415h-4.358a3.755 3.755 0 0 0 -3.75 3.75v8.328a3.755 3.755 0 0 0 3.75 3.75h4.358a3.755 3.755 0 0 0 3.75-3.75v-8.328a3.755 3.755 0 0 0 -3.75-3.75zm.25 12.078a.251.251 0 0 1 -.25.25h-4.358a.251.251 0 0 1 -.25-.25v-8.328a.25.25 0 0 1 .25-.25h4.358a.251.251 0 0 1 .25.25z"/><path d="m114.25 81.415h-4.356a3.754 3.754 0 0 0 -3.75 3.75v8.328a3.754 3.754 0 0 0 3.75 3.75h4.356a3.755 3.755 0 0 0 3.75-3.75v-8.328a3.755 3.755 0 0 0 -3.75-3.75zm.25 12.078a.251.251 0 0 1 -.25.25h-4.356a.251.251 0 0 1 -.25-.25v-8.328a.25.25 0 0 1 .25-.25h4.356a.25.25 0 0 1 .25.25z"/><path d="m20.106 49.941h-2.428v-10.577a1.75 1.75 0 0 0 -2.833-1.375l-4.178 3.294a1.75 1.75 0 1 0 2.166 2.749l1.345-1.06v6.969h-2.428a1.75 1.75 0 0 0 0 3.5h8.356a1.75 1.75 0 0 0 0-3.5z"/><path d="m116.25 71.842h-2.429v-10.577a1.75 1.75 0 0 0 -2.833-1.375l-4.177 3.294a1.75 1.75 0 0 0 2.166 2.749l1.344-1.06v6.969h-2.427a1.75 1.75 0 0 0 0 3.5h8.356a1.75 1.75 0 0 0 0-3.5z"/><path d="m68.179 49.941h-2.429v-10.577a1.75 1.75 0 0 0 -2.833-1.375l-4.179 3.294a1.75 1.75 0 0 0 2.167 2.749l1.345-1.06v6.969h-2.428a1.75 1.75 0 0 0 0 3.5h8.357a1.75 1.75 0 0 0 0-3.5z"/><path d="m100.227 49.941h-2.427v-10.577a1.75 1.75 0 0 0 -2.833-1.375l-4.179 3.294a1.75 1.75 0 0 0 2.166 2.749l1.346-1.061v6.97h-2.431a1.75 1.75 0 0 0 0 3.5h8.358a1.75 1.75 0 0 0 0-3.5z"/></g><rect fill="#de6246" height="34.346" rx="4" width="40.404" x="43.798" y="83.165"/><path d="m78.671 83.165h-8v-9.9a4 4 0 0 0 -4-4h-5.342a4 4 0 0 0 -4 4v1.949h-8v-1.946a12.013 12.013 0 0 1 12-12h5.342a12.013 12.013 0 0 1 12 12z" fill="#607880"/><path d="m68.792 96.859a4.792 4.792 0 1 0 -6.542 4.451v7.3a1.75 1.75 0 0 0 3.5 0v-7.3a4.784 4.784 0 0 0 3.042-4.451z" fill="#f4d844"/></g></svg>